<?xml version="1.0" standalone="no"?>
<!DOCTYPE svg PUBLIC "-//W3C//DTD SVG 20010904//EN"
 "http://www.w3.org/TR/2001/REC-SVG-20010904/DTD/svg10.dtd">
<svg version="1.0" xmlns="http://www.w3.org/2000/svg"
 width="1000.000000pt" height="1000.000000pt" viewBox="0 0 1000.000000 1000.000000"
 preserveAspectRatio="xMidYMid meet">
<metadata>
Created by potrace 1.14, written by Peter Selinger 2001-2017
</metadata>
<g transform="translate(0.000000,1000.000000) scale(0.100000,-0.100000)"
fill="#000000" stroke="none">
<path d="M0 5000 l0 -5000 5000 0 5000 0 0 5000 0 5000 -5000 0 -5000 0 0
-5000z m5550 2700 c618 -44 1076 -198 1488 -502 145 -107 334 -298 407 -412
l19 -28 -45 -42 c-24 -23 -109 -102 -189 -176 -80 -73 -181 -167 -225 -209
-227 -214 -595 -552 -602 -552 -4 1 -42 40 -83 88 -166 192 -387 317 -652 368
-111 21 -362 21 -483 0 -437 -77 -768 -366 -899 -784 -47 -150 -61 -250 -61
-446 1 -308 61 -530 200 -745 58 -90 227 -261 310 -315 135 -88 297 -151 462
-180 107 -19 351 -19 453 -1 167 30 347 107 480 206 62 46 202 184 248 243 19
25 23 27 40 15 10 -7 237 -218 503 -469 266 -250 500 -469 519 -486 l34 -30
-57 -74 c-126 -165 -358 -368 -562 -492 -319 -193 -711 -321 -1130 -368 -156
-18 -583 -18 -740 0 -491 55 -983 231 -1335 479 -597 419 -974 1035 -1079
1759 -58 396 -45 756 40 1128 226 990 976 1716 2014 1950 303 69 633 95 925
75z"/>
</g>
</svg>
