<?xml version="1.0" standalone="no"?>
<!DOCTYPE svg PUBLIC "-//W3C//DTD SVG 20010904//EN"
 "http://www.w3.org/TR/2001/REC-SVG-20010904/DTD/svg10.dtd">
<svg version="1.0" xmlns="http://www.w3.org/2000/svg"
 width="1000.000000pt" height="1000.000000pt" viewBox="0 0 1000.000000 1000.000000"
 preserveAspectRatio="xMidYMid meet">
<metadata>
Created by potrace 1.14, written by Peter Selinger 2001-2017
</metadata>
<g transform="translate(0.000000,1000.000000) scale(0.100000,-0.100000)"
fill="#000000" stroke="none">
<path d="M0 5000 l0 -5000 5000 0 5000 0 0 5000 0 5000 -5000 0 -5000 0 0
-5000z m5972 3384 c571 -72 1042 -240 1463 -519 156 -103 292 -216 422 -347
101 -103 253 -282 253 -298 0 -4 -134 -132 -297 -286 -163 -153 -335 -316
-382 -360 -270 -255 -666 -624 -671 -624 -3 1 -25 28 -50 61 -58 79 -227 242
-311 301 -164 116 -387 208 -589 244 -144 26 -414 26 -560 0 -554 -97 -965
-449 -1140 -974 -68 -205 -85 -322 -85 -587 0 -195 4 -248 23 -350 105 -565
445 -969 958 -1141 173 -58 308 -78 529 -78 218 -1 350 19 523 78 257 87 510
271 658 476 20 27 40 50 45 50 8 0 299 -268 859 -790 69 -65 206 -193 305
-285 99 -92 179 -172 177 -178 -6 -20 -113 -155 -186 -235 -498 -540 -1225
-866 -2106 -942 -149 -13 -584 -13 -725 0 -531 48 -988 175 -1420 395 -1148
584 -1809 1736 -1772 3090 10 334 45 591 122 882 194 731 632 1361 1255 1805
163 116 497 297 680 368 303 117 582 191 895 234 246 35 211 33 587 34 309 2
354 0 540 -24z"/>
</g>
</svg>
